<svg id="svg" version="1.1" xmlns="http://www.w3.org/2000/svg" xmlns:xlink="http://www.w3.org/1999/xlink" width="400" height="400" viewBox="0, 0, 400,400"><g id="svgg"><path id="path0" d="M198.806 40.918 C 198.117 42.153,197.079 44.043,196.499 45.117 C 194.949 47.990,191.079 55.007,189.929 57.031 C 189.380 57.998,188.185 60.195,187.273 61.914 C 183.811 68.444,180.730 74.101,179.510 76.172 C 178.814 77.354,177.310 80.078,176.169 82.227 C 173.372 87.493,172.151 89.744,171.081 91.602 C 170.586 92.461,169.390 94.658,168.423 96.484 C 167.456 98.311,166.563 99.893,166.438 100.000 C 166.313 100.107,165.637 101.338,164.936 102.734 C 164.235 104.131,162.987 106.504,162.163 108.008 C 161.338 109.512,159.319 113.193,157.676 116.187 C 156.032 119.182,154.688 121.762,154.688 121.921 C 154.688 122.080,154.468 122.449,154.199 122.741 C 153.611 123.381,153.510 123.560,150.391 129.492 C 149.036 132.070,147.763 134.391,147.563 134.650 C 147.363 134.909,146.602 136.315,145.871 137.775 C 145.141 139.235,143.839 141.660,142.978 143.164 C 141.207 146.259,138.827 150.650,136.514 155.088 C 135.650 156.747,134.749 158.347,134.513 158.642 C 134.276 158.938,133.337 160.586,132.425 162.305 C 129.461 167.895,129.106 168.545,128.801 168.943 C 128.636 169.159,127.891 170.531,127.146 171.992 L 125.791 174.648 127.143 177.265 C 127.886 178.705,129.136 181.025,129.921 182.422 C 130.705 183.818,132.006 186.191,132.811 187.695 C 133.616 189.199,135.373 192.451,136.716 194.922 C 140.877 202.581,141.866 204.420,143.020 206.641 C 143.634 207.822,144.298 208.985,144.496 209.225 C 144.693 209.465,145.671 211.223,146.669 213.131 C 147.666 215.040,148.648 216.769,148.850 216.973 C 149.053 217.177,149.219 217.589,149.219 217.889 C 149.219 218.189,149.546 218.901,149.947 219.471 C 150.347 220.041,151.290 221.650,152.042 223.047 C 152.794 224.443,153.808 226.289,154.294 227.148 C 154.781 228.008,155.839 229.941,156.645 231.445 C 157.451 232.949,158.928 235.674,159.926 237.500 C 160.925 239.326,162.045 241.436,162.414 242.188 C 162.784 242.939,163.187 243.643,163.312 243.750 C 163.871 244.234,168.750 253.969,168.750 254.601 C 168.750 254.990,167.962 256.619,166.999 258.221 C 166.035 259.822,165.244 261.236,165.241 261.362 C 165.237 261.489,164.074 263.686,162.655 266.245 C 160.314 270.469,158.986 272.909,155.871 278.711 C 155.295 279.785,154.472 281.279,154.042 282.031 C 153.613 282.783,152.664 284.541,151.933 285.938 C 151.202 287.334,150.512 288.564,150.400 288.672 C 150.287 288.779,149.686 289.834,149.063 291.016 C 148.440 292.197,147.162 294.570,146.223 296.289 C 145.284 298.008,143.476 301.365,142.205 303.750 C 140.933 306.135,139.539 308.684,139.106 309.414 C 138.673 310.145,137.215 312.793,135.866 315.300 C 134.518 317.806,133.291 319.781,133.140 319.688 C 132.990 319.595,132.756 319.697,132.621 319.916 C 132.355 320.347,79.466 320.503,78.352 320.075 C 77.454 319.731,77.574 319.214,79.157 316.602 C 79.938 315.313,81.224 313.027,82.013 311.523 C 84.447 306.888,86.419 303.348,86.908 302.734 C 87.165 302.412,88.311 300.391,89.455 298.242 C 92.095 293.283,92.974 291.700,93.362 291.211 C 93.532 290.996,94.680 288.887,95.912 286.523 C 97.145 284.160,98.360 281.963,98.612 281.641 C 98.864 281.318,99.656 279.912,100.372 278.516 C 101.088 277.119,101.878 275.713,102.129 275.391 C 102.379 275.068,103.185 273.574,103.921 272.070 C 104.656 270.566,105.368 269.248,105.504 269.141 C 105.639 269.033,106.434 267.653,107.269 266.073 C 108.105 264.493,109.240 262.384,109.792 261.385 C 111.765 257.812,115.180 251.710,116.708 249.023 C 117.564 247.520,118.967 244.971,119.827 243.359 L 121.389 240.430 119.501 237.109 C 118.462 235.283,116.510 231.768,115.162 229.297 C 113.815 226.826,112.532 224.513,112.313 224.155 C 112.094 223.798,111.246 222.243,110.430 220.699 C 109.614 219.155,108.526 217.228,108.014 216.415 C 107.501 215.603,106.802 214.269,106.460 213.451 C 105.703 211.640,105.385 211.866,103.398 215.625 C 102.660 217.021,101.650 218.867,101.155 219.727 C 100.659 220.586,99.508 222.695,98.597 224.414 C 97.686 226.133,96.327 228.594,95.576 229.883 C 94.826 231.172,93.647 233.360,92.956 234.745 C 92.265 236.130,91.457 237.505,91.162 237.800 C 90.867 238.095,90.625 238.475,90.625 238.644 C 90.625 238.813,89.283 241.393,87.642 244.378 C 86.002 247.363,84.004 251.035,83.201 252.539 C 80.358 257.869,79.147 259.963,78.833 260.091 C 78.659 260.163,78.512 260.426,78.508 260.677 C 78.501 261.093,76.162 265.493,71.309 274.219 C 70.293 276.045,68.754 278.857,67.887 280.469 C 65.237 285.398,63.973 287.677,63.662 288.086 C 63.363 288.479,62.632 289.815,59.177 296.289 C 58.145 298.223,57.196 299.893,57.068 300.000 C 56.940 300.107,56.260 301.338,55.557 302.734 C 54.854 304.131,53.696 306.328,52.985 307.617 C 52.273 308.906,51.070 311.104,50.310 312.500 C 49.551 313.896,48.492 315.830,47.958 316.797 C 47.423 317.764,46.283 319.873,45.423 321.484 C 44.563 323.096,43.455 325.117,42.960 325.977 C 42.466 326.836,41.365 328.857,40.513 330.469 C 39.661 332.080,38.687 333.838,38.349 334.375 C 37.659 335.470,36.341 337.902,34.854 340.820 C 34.307 341.895,33.272 343.763,32.555 344.973 C 31.837 346.183,31.250 347.369,31.250 347.610 C 31.250 347.930,46.621 348.047,88.849 348.047 L 146.449 348.047 147.852 345.215 C 148.623 343.657,149.880 341.328,150.644 340.039 C 151.409 338.750,152.782 336.289,153.697 334.570 C 154.612 332.852,155.758 330.742,156.245 329.883 C 156.732 329.023,157.942 326.826,158.933 325.000 C 159.925 323.174,161.049 321.152,161.430 320.508 C 161.812 319.863,162.404 318.721,162.747 317.969 C 163.090 317.217,163.690 316.152,164.080 315.603 C 164.470 315.053,165.443 313.295,166.242 311.696 C 167.040 310.097,168.019 308.370,168.417 307.857 C 168.815 307.345,169.141 306.598,169.141 306.197 C 169.141 305.797,169.272 305.467,169.434 305.466 C 169.595 305.464,169.924 305.069,170.165 304.587 C 171.105 302.707,175.189 295.294,177.572 291.141 C 178.950 288.739,180.078 286.691,180.078 286.589 C 180.078 286.487,180.715 285.288,181.493 283.924 C 185.710 276.539,189.453 269.615,189.453 269.201 C 189.453 268.989,189.598 268.757,189.776 268.685 C 189.954 268.613,190.765 267.236,191.580 265.625 C 192.395 264.014,193.172 262.607,193.308 262.500 C 193.444 262.393,194.044 261.338,194.642 260.156 C 195.240 258.975,196.270 257.041,196.929 255.859 L 198.129 253.711 195.647 248.828 C 194.281 246.143,193.071 243.857,192.958 243.750 C 192.699 243.505,188.281 235.578,188.281 235.359 C 188.281 235.271,187.692 234.178,186.973 232.931 C 186.253 231.684,184.645 228.730,183.400 226.367 C 182.155 224.004,180.830 221.631,180.456 221.094 C 180.081 220.557,179.243 219.062,178.594 217.773 C 176.953 214.517,174.480 209.945,169.612 201.172 C 168.563 199.281,164.806 192.410,162.565 188.281 C 161.807 186.885,160.605 184.688,159.895 183.398 C 159.184 182.109,158.484 180.791,158.339 180.469 C 158.193 180.146,157.305 178.514,156.365 176.841 L 154.655 173.799 155.378 172.739 C 155.775 172.156,156.666 170.537,157.359 169.141 C 158.052 167.744,159.360 165.263,160.266 163.628 C 163.709 157.414,167.832 149.829,169.336 146.944 C 170.195 145.295,171.118 143.713,171.387 143.429 C 171.655 143.145,171.875 142.770,171.875 142.595 C 171.875 142.305,176.457 133.804,177.358 132.422 C 177.568 132.100,177.954 131.396,178.216 130.859 C 178.714 129.839,185.113 118.103,186.097 116.406 C 186.408 115.869,187.323 114.111,188.130 112.500 C 188.938 110.889,189.711 109.482,189.849 109.375 C 189.987 109.268,190.363 108.652,190.683 108.008 C 193.367 102.615,198.568 93.394,198.834 93.558 C 199.016 93.671,199.284 93.570,199.429 93.334 C 199.685 92.922,201.528 95.668,203.066 98.753 C 204.720 102.069,206.852 106.068,207.062 106.250 C 207.187 106.357,208.572 108.906,210.140 111.914 C 211.708 114.922,213.124 117.559,213.287 117.773 C 213.450 117.988,214.680 120.273,216.020 122.852 C 219.776 130.077,222.321 134.827,223.242 136.328 C 224.835 138.927,228.125 145.660,228.125 146.322 C 228.125 146.688,226.851 149.179,225.293 151.858 C 223.735 154.537,221.610 158.335,220.570 160.298 C 219.531 162.261,218.013 165.010,217.198 166.406 C 216.382 167.803,215.059 170.176,214.256 171.680 C 213.454 173.184,212.554 174.692,212.258 175.031 C 211.961 175.370,211.719 175.764,211.719 175.906 C 211.719 176.228,207.357 184.108,207.031 184.375 C 206.900 184.482,206.415 185.344,205.955 186.290 C 204.979 188.294,204.652 187.379,209.518 196.265 C 211.158 199.259,212.500 201.839,212.500 201.999 C 212.500 202.158,212.727 202.520,213.005 202.804 C 213.487 203.297,215.988 207.783,218.472 212.611 C 219.803 215.197,219.598 215.302,222.089 210.742 C 222.911 209.238,224.078 207.226,224.682 206.271 C 225.287 205.316,225.781 204.397,225.781 204.228 C 225.781 204.059,226.396 202.960,227.148 201.784 C 227.900 200.609,228.516 199.537,228.516 199.403 C 228.516 199.269,229.195 197.986,230.025 196.553 C 231.657 193.732,233.227 190.947,234.578 188.477 C 235.601 186.607,238.542 181.362,240.771 177.432 C 241.658 175.870,242.653 174.100,242.983 173.498 C 246.840 166.469,249.031 162.672,249.292 162.565 C 249.467 162.493,249.609 162.250,249.609 162.024 C 249.609 161.798,251.047 159.044,252.805 155.904 C 256.515 149.276,257.422 147.490,257.422 146.812 C 257.422 146.253,254.149 139.738,251.958 135.938 C 251.154 134.541,250.278 132.727,250.013 131.907 C 249.748 131.087,249.447 130.501,249.343 130.605 C 249.239 130.709,247.806 128.128,246.159 124.870 C 244.512 121.611,243.062 118.857,242.938 118.750 C 242.814 118.643,241.424 116.094,239.850 113.086 C 238.276 110.078,236.369 106.475,235.612 105.078 C 234.855 103.682,233.324 100.781,232.209 98.633 C 231.094 96.484,229.697 93.848,229.104 92.773 C 228.511 91.699,227.190 89.238,226.169 87.305 C 225.147 85.371,223.561 82.383,222.644 80.664 C 221.726 78.945,220.327 76.272,219.534 74.723 C 218.741 73.175,217.912 71.681,217.692 71.403 C 217.473 71.126,216.148 68.701,214.748 66.016 C 213.349 63.330,211.595 59.990,210.851 58.594 C 210.106 57.197,208.485 54.121,207.246 51.758 C 206.008 49.395,204.860 47.285,204.695 47.070 C 204.531 46.855,203.481 44.878,202.362 42.676 C 199.964 37.954,200.352 38.146,198.806 40.918 M271.601 178.808 C 270.766 180.473,268.728 184.259,267.072 187.220 C 265.417 190.181,264.063 192.765,264.063 192.962 C 264.063 193.159,263.843 193.461,263.574 193.633 C 263.306 193.805,262.782 194.561,262.411 195.313 C 260.985 198.203,250.475 217.537,247.653 222.461 C 247.161 223.320,246.245 224.990,245.618 226.172 C 244.991 227.354,244.046 229.090,243.517 230.031 C 242.989 230.972,241.002 234.575,239.104 238.039 C 232.621 249.863,231.136 252.540,229.045 256.166 C 227.894 258.161,226.953 259.896,226.953 260.023 C 226.953 260.149,225.663 262.560,224.085 265.380 C 222.508 268.200,220.597 271.650,219.840 273.047 C 219.082 274.443,217.976 276.465,217.382 277.539 C 216.788 278.613,215.776 280.459,215.133 281.641 C 214.490 282.822,213.151 285.248,212.158 287.031 C 211.164 288.814,209.720 291.451,208.949 292.890 C 208.178 294.330,206.742 297.002,205.758 298.828 C 204.774 300.654,203.314 303.379,202.513 304.883 C 201.713 306.387,200.846 307.881,200.588 308.203 C 200.329 308.525,199.237 310.459,198.161 312.500 C 197.085 314.541,195.625 317.266,194.917 318.555 C 192.367 323.196,191.260 325.237,189.936 327.734 C 189.195 329.131,188.370 330.537,188.102 330.859 C 187.834 331.182,187.023 332.720,186.299 334.277 C 185.576 335.835,184.847 337.109,184.679 337.109 C 184.512 337.109,184.375 337.329,184.374 337.598 C 184.373 337.866,183.736 339.141,182.958 340.430 C 182.179 341.719,180.968 343.872,180.267 345.215 L 178.992 347.656 193.430 347.656 C 204.468 347.656,207.980 347.541,208.341 347.168 C 208.601 346.899,210.184 344.151,211.859 341.060 C 215.674 334.019,215.778 333.831,216.016 333.594 C 216.123 333.486,216.602 332.607,217.080 331.641 C 217.558 330.674,218.750 328.477,219.728 326.758 C 220.706 325.039,222.050 322.578,222.716 321.289 C 223.381 320.000,224.080 318.887,224.268 318.815 C 224.456 318.743,224.609 318.521,224.609 318.321 C 224.609 318.017,228.260 311.227,231.833 304.883 C 235.242 298.832,238.212 293.424,241.704 286.914 C 243.317 283.906,244.767 281.270,244.926 281.055 C 245.319 280.524,250.583 271.020,253.148 266.211 C 254.294 264.063,255.372 262.246,255.545 262.174 C 255.718 262.103,255.859 261.882,255.859 261.684 C 255.859 261.486,257.124 259.084,258.670 256.346 C 260.216 253.608,261.990 250.400,262.612 249.219 C 263.235 248.037,263.882 246.895,264.050 246.680 C 264.218 246.465,265.105 244.883,266.021 243.164 C 266.938 241.445,267.795 239.951,267.926 239.844 C 268.057 239.736,268.749 238.450,269.464 236.985 C 273.017 229.702,272.198 229.065,281.431 246.289 C 283.710 250.541,285.285 253.434,286.248 255.138 C 286.691 255.923,286.949 256.671,286.821 256.799 C 286.693 256.927,286.782 257.031,287.018 257.031 C 288.739 257.031,287.930 259.035,281.969 269.531 C 279.955 273.076,277.799 276.943,277.175 278.125 C 276.552 279.307,275.720 280.693,275.326 281.205 C 274.932 281.717,274.609 282.281,274.609 282.458 C 274.609 282.634,272.745 286.082,270.465 290.120 C 268.186 294.157,265.625 298.779,264.775 300.391 C 263.925 302.002,262.460 304.639,261.519 306.250 C 260.578 307.861,259.644 309.531,259.443 309.961 C 259.242 310.391,257.892 312.852,256.444 315.430 C 253.543 320.594,252.341 322.781,249.680 327.734 C 248.700 329.561,247.790 331.143,247.658 331.250 C 247.526 331.357,246.835 332.588,246.122 333.984 C 245.409 335.381,244.653 336.739,244.443 337.003 C 244.232 337.267,243.525 338.585,242.871 339.933 C 242.217 341.280,241.576 342.471,241.447 342.578 C 241.247 342.743,238.672 347.571,238.672 347.781 C 238.672 347.820,245.376 347.803,253.571 347.745 C 261.766 347.686,268.371 347.537,268.248 347.415 C 268.126 347.292,268.483 346.374,269.042 345.373 C 269.602 344.373,270.970 341.885,272.082 339.844 C 273.195 337.803,274.861 334.814,275.785 333.203 C 276.709 331.592,278.088 329.131,278.849 327.734 C 279.610 326.338,280.378 325.020,280.556 324.805 C 280.735 324.590,281.282 323.623,281.772 322.656 C 282.545 321.132,284.293 317.944,288.198 310.938 C 290.533 306.748,293.176 301.963,294.457 299.609 C 295.216 298.213,295.953 296.982,296.095 296.875 C 296.236 296.768,296.975 295.449,297.737 293.945 C 298.498 292.441,299.674 290.244,300.349 289.063 C 301.025 287.881,301.725 286.650,301.905 286.328 C 302.786 284.756,303.153 285.308,310.218 298.828 C 311.734 301.729,313.109 304.277,313.275 304.492 C 313.554 304.855,314.337 306.301,318.455 314.063 C 319.309 315.674,320.533 317.921,321.174 319.057 C 323.013 322.317,323.132 322.266,313.694 322.266 L 305.489 322.266 304.838 323.535 C 304.481 324.233,304.081 324.893,303.949 325.000 C 303.818 325.107,303.110 326.338,302.375 327.734 C 301.641 329.131,300.718 330.693,300.325 331.205 C 299.931 331.717,299.609 332.293,299.609 332.485 C 299.609 332.677,298.555 334.642,297.266 336.852 C 295.977 339.061,294.922 341.064,294.922 341.301 C 294.922 341.538,294.768 341.790,294.580 341.862 C 294.315 341.963,292.344 345.453,291.475 347.359 C 291.403 347.518,308.145 347.694,328.680 347.750 C 349.214 347.806,366.016 347.707,366.016 347.531 C 366.016 347.355,364.984 345.333,363.722 343.039 C 362.461 340.744,360.815 337.725,360.064 336.328 C 359.314 334.932,358.353 333.174,357.930 332.422 C 357.506 331.670,356.230 329.297,355.094 327.148 C 353.958 325.000,352.718 322.715,352.340 322.070 C 351.961 321.426,350.915 319.492,350.016 317.773 C 349.117 316.055,348.218 314.481,348.018 314.277 C 347.819 314.073,347.656 313.687,347.656 313.418 C 347.656 313.149,347.126 312.144,346.477 311.183 C 345.828 310.222,345.040 308.819,344.726 308.066 C 344.411 307.314,343.635 305.818,343.001 304.742 C 342.367 303.667,340.706 300.622,339.310 297.976 C 335.122 290.035,333.872 287.760,332.956 286.410 C 332.476 285.703,331.773 284.297,331.394 283.285 C 331.015 282.273,330.598 281.357,330.467 281.250 C 330.202 281.031,326.373 274.097,325.183 271.680 C 324.760 270.820,324.306 270.029,324.175 269.922 C 324.043 269.814,323.405 268.672,322.756 267.383 C 322.107 266.094,320.759 263.545,319.760 261.719 C 318.761 259.893,317.396 257.256,316.727 255.859 C 316.058 254.463,315.317 253.078,315.080 252.783 C 314.842 252.487,313.330 249.744,311.719 246.686 C 308.903 241.342,299.428 223.626,296.569 218.359 C 295.811 216.963,294.719 214.941,294.141 213.867 C 293.564 212.793,292.454 210.771,291.675 209.375 C 290.896 207.979,289.506 205.342,288.586 203.516 C 287.666 201.689,286.807 200.107,286.676 200.000 C 286.457 199.820,285.617 198.291,281.985 191.460 C 276.193 180.567,274.514 177.557,274.150 177.409 C 273.973 177.337,273.828 177.040,273.828 176.748 C 273.828 175.288,272.968 176.084,271.601 178.808 " stroke="none" fill="#ec8b2c" fill-rule="evenodd"></path><path id="path1" d="M92.871 319.824 C 100.015 319.884,111.704 319.884,118.848 319.824 C 125.991 319.764,120.146 319.716,105.859 319.716 C 91.572 319.716,85.728 319.764,92.871 319.824 " stroke="none" fill="#d99d66" fill-rule="evenodd"></path><path id="path2" d="M269.336 182.031 C 269.003 182.676,268.818 183.203,268.925 183.203 C 269.033 183.203,269.393 182.676,269.727 182.031 C 270.060 181.387,270.245 180.859,270.137 180.859 C 270.030 180.859,269.669 181.387,269.336 182.031 M111.914 257.813 C 111.370 258.887,111.012 259.766,111.120 259.766 C 111.227 259.766,111.760 258.887,112.305 257.813 C 112.849 256.738,113.207 255.859,113.099 255.859 C 112.992 255.859,112.458 256.738,111.914 257.813 M47.393 348.340 C 56.593 348.398,71.535 348.398,80.596 348.340 C 89.657 348.281,82.129 348.234,63.867 348.234 C 45.605 348.234,38.192 348.281,47.393 348.340 M111.621 348.340 C 118.120 348.400,128.755 348.400,135.254 348.340 C 141.753 348.279,136.436 348.230,123.438 348.230 C 110.439 348.230,105.122 348.279,111.621 348.340 " stroke="none" fill="#c27830" fill-rule="evenodd"></path><path id="path3" d="M222.321 155.915 C 222.046 156.356,221.907 156.803,222.012 156.907 C 222.116 157.012,222.407 156.716,222.656 156.250 C 223.247 155.147,222.972 154.873,222.321 155.915 " stroke="none" fill="#d28d4b" fill-rule="evenodd"></path><path id="path4" d="M198.107 41.466 C 197.610 42.330,197.274 43.107,197.360 43.194 C 197.447 43.280,197.918 42.638,198.407 41.767 C 198.897 40.896,199.233 40.118,199.154 40.040 C 199.075 39.961,198.604 40.603,198.107 41.466 M201.421 40.820 C 202.324 42.363,202.344 42.386,202.344 41.905 C 202.344 41.678,201.982 41.078,201.539 40.571 L 200.735 39.648 201.421 40.820 M194.350 48.276 C 193.986 48.832,193.755 49.354,193.837 49.436 C 193.919 49.518,194.295 49.063,194.672 48.425 C 195.513 47.000,195.262 46.884,194.350 48.276 M188.716 58.598 C 188.235 59.455,187.922 60.156,188.022 60.156 C 188.287 60.156,189.902 57.350,189.734 57.182 C 189.656 57.104,189.198 57.741,188.716 58.598 M185.752 64.043 C 185.424 64.677,185.156 65.331,185.156 65.497 C 185.156 65.897,186.131 64.444,186.446 63.574 C 186.841 62.487,186.405 62.781,185.752 64.043 M214.297 65.195 C 214.629 65.861,214.960 66.406,215.031 66.406 C 215.349 66.406,214.707 64.826,214.226 64.427 C 213.823 64.092,213.840 64.280,214.297 65.195 M180.273 74.219 C 179.940 74.863,179.755 75.391,179.863 75.391 C 179.970 75.391,180.331 74.863,180.664 74.219 C 180.997 73.574,181.182 73.047,181.075 73.047 C 180.967 73.047,180.607 73.574,180.273 74.219 M222.461 80.469 C 222.794 81.113,223.155 81.641,223.262 81.641 C 223.370 81.641,223.185 81.113,222.852 80.469 C 222.518 79.824,222.158 79.297,222.050 79.297 C 221.943 79.297,222.128 79.824,222.461 80.469 M175.804 82.276 C 175.344 83.055,175.032 83.756,175.110 83.834 C 175.188 83.912,175.646 83.274,176.127 82.418 C 177.221 80.471,176.941 80.348,175.804 82.276 M172.656 87.891 C 172.407 88.357,172.290 88.827,172.398 88.934 C 172.505 89.042,172.797 88.748,173.047 88.281 C 173.297 87.815,173.413 87.345,173.305 87.238 C 173.198 87.130,172.906 87.424,172.656 87.891 M226.563 88.037 C 226.563 88.322,228.585 91.797,228.751 91.797 C 228.844 91.797,228.474 90.918,227.930 89.844 C 227.081 88.170,226.563 87.484,226.563 88.037 M229.258 93.164 C 229.916 94.438,230.457 95.145,230.454 94.727 C 230.453 94.512,230.092 93.896,229.653 93.359 C 229.122 92.711,228.989 92.645,229.258 93.164 M202.225 97.847 C 202.582 98.596,202.944 99.140,203.029 99.055 C 203.207 98.876,202.021 96.484,201.754 96.484 C 201.656 96.484,201.867 97.097,202.225 97.847 M166.973 98.474 C 166.630 99.138,166.418 99.751,166.503 99.836 C 166.588 99.921,166.949 99.377,167.306 98.628 C 168.110 96.943,167.831 96.814,166.973 98.474 M203.476 100.195 C 204.135 101.469,204.676 102.176,204.673 101.758 C 204.671 101.543,204.311 100.928,203.871 100.391 C 203.341 99.742,203.208 99.676,203.476 100.195 M233.194 100.561 C 233.704 101.903,234.827 103.585,235.058 103.353 C 235.161 103.250,234.874 102.694,234.420 102.116 C 233.965 101.539,233.594 100.837,233.594 100.556 C 233.594 100.276,233.419 99.938,233.204 99.805 C 232.947 99.646,232.943 99.902,233.194 100.561 M163.361 105.104 C 162.875 105.949,162.555 106.641,162.652 106.641 C 162.921 106.641,164.562 103.885,164.394 103.717 C 164.312 103.635,163.847 104.259,163.361 105.104 M161.523 108.594 C 161.190 109.238,161.005 109.766,161.113 109.766 C 161.220 109.766,161.581 109.238,161.914 108.594 C 162.247 107.949,162.432 107.422,162.325 107.422 C 162.217 107.422,161.857 107.949,161.523 108.594 M157.876 115.056 C 157.221 116.492,157.346 116.799,158.054 115.493 C 158.384 114.883,158.582 114.311,158.492 114.222 C 158.403 114.132,158.126 114.508,157.876 115.056 M242.069 117.378 C 242.426 118.127,242.787 118.671,242.872 118.586 C 243.051 118.407,241.865 116.016,241.598 116.016 C 241.499 116.016,241.711 116.629,242.069 117.378 M216.797 125.000 C 217.235 125.859,217.682 126.563,217.789 126.563 C 217.897 126.563,217.626 125.859,217.188 125.000 C 216.749 124.141,216.302 123.438,216.195 123.438 C 216.088 123.438,216.358 124.141,216.797 125.000 M248.389 129.447 C 248.738 130.174,249.091 130.707,249.174 130.631 C 249.408 130.417,248.379 128.125,248.049 128.125 C 247.887 128.125,248.040 128.720,248.389 129.447 M147.694 133.813 C 147.243 134.577,147.051 135.094,147.268 134.960 C 147.691 134.698,148.959 132.422,148.681 132.422 C 148.590 132.422,148.145 133.048,147.694 133.813 M225.028 140.039 C 225.028 140.254,225.279 140.869,225.586 141.406 C 225.893 141.943,226.144 142.207,226.144 141.992 C 226.144 141.777,225.893 141.162,225.586 140.625 C 225.279 140.088,225.028 139.824,225.028 140.039 M255.273 142.188 C 255.607 142.832,255.967 143.359,256.075 143.359 C 256.182 143.359,255.997 142.832,255.664 142.188 C 255.331 141.543,254.970 141.016,254.863 141.016 C 254.755 141.016,254.940 141.543,255.273 142.188 M257.199 146.777 C 257.183 147.368,257.039 148.203,256.879 148.633 C 256.698 149.116,256.816 149.041,257.186 148.438 C 257.813 147.414,258.022 145.703,257.520 145.703 C 257.358 145.703,257.214 146.187,257.199 146.777 M138.532 150.595 C 137.989 151.567,137.713 152.258,137.919 152.131 C 138.329 151.878,139.964 148.828,139.690 148.828 C 139.596 148.828,139.075 149.623,138.532 150.595 M255.812 150.488 C 255.556 150.972,255.067 151.800,254.724 152.329 C 254.341 152.921,254.291 153.173,254.595 152.986 C 255.106 152.671,256.803 149.609,256.467 149.609 C 256.363 149.609,256.068 150.005,255.812 150.488 M136.026 155.176 C 135.550 155.761,134.347 158.594,134.575 158.594 C 134.663 158.594,135.156 157.715,135.670 156.641 C 136.637 154.620,136.704 154.343,136.026 155.176 M252.388 156.645 C 251.907 157.502,251.594 158.203,251.694 158.203 C 251.959 158.203,253.574 155.396,253.406 155.229 C 253.328 155.151,252.870 155.788,252.388 156.645 M163.944 156.841 C 163.586 157.590,163.374 158.203,163.473 158.203 C 163.740 158.203,164.926 155.811,164.747 155.633 C 164.662 155.548,164.301 156.092,163.944 156.841 M220.115 160.381 C 219.325 161.794,218.742 163.013,218.819 163.089 C 218.896 163.166,219.625 162.011,220.440 160.521 C 221.254 159.031,221.838 157.813,221.736 157.813 C 221.635 157.813,220.905 158.968,220.115 160.381 M217.727 164.941 C 216.382 167.223,216.295 167.417,216.980 166.602 C 217.773 165.656,218.457 164.453,218.201 164.453 C 218.099 164.453,217.885 164.673,217.727 164.941 M158.371 166.980 C 158.023 167.510,157.800 168.102,157.873 168.295 C 157.947 168.489,158.293 168.055,158.642 167.331 C 159.388 165.783,159.262 165.619,158.371 166.980 M245.117 169.531 C 244.784 170.176,244.599 170.703,244.706 170.703 C 244.814 170.703,245.175 170.176,245.508 169.531 C 245.841 168.887,246.026 168.359,245.919 168.359 C 245.811 168.359,245.450 168.887,245.117 169.531 M125.594 174.205 C 125.367 174.572,126.774 177.734,127.164 177.734 C 127.272 177.734,126.998 177.025,126.556 176.158 C 126.113 175.292,125.857 174.413,125.985 174.205 C 126.113 173.998,126.130 173.828,126.023 173.828 C 125.915 173.828,125.722 173.998,125.594 174.205 M241.406 176.172 C 240.968 177.031,240.697 177.734,240.804 177.734 C 240.912 177.734,241.358 177.031,241.797 176.172 C 242.235 175.313,242.506 174.609,242.399 174.609 C 242.291 174.609,241.845 175.313,241.406 176.172 M272.917 175.651 C 272.773 175.794,272.659 176.102,272.662 176.335 C 272.666 176.567,272.832 176.499,273.032 176.183 C 273.337 175.701,273.443 175.732,273.688 176.378 C 273.848 176.802,274.238 177.409,274.553 177.727 C 275.151 178.332,275.125 178.229,274.241 176.465 C 273.694 175.374,273.384 175.183,272.917 175.651 M270.949 179.215 C 270.546 179.867,269.938 181.641,270.117 181.641 C 270.410 181.641,271.555 179.238,271.357 179.039 C 271.255 178.938,271.072 179.016,270.949 179.215 M276.367 181.250 C 276.700 181.895,277.061 182.422,277.169 182.422 C 277.276 182.422,277.091 181.895,276.758 181.250 C 276.425 180.605,276.064 180.078,275.956 180.078 C 275.849 180.078,276.034 180.605,276.367 181.250 M238.772 180.957 C 238.219 181.655,237.441 183.203,237.643 183.203 C 237.737 183.203,238.176 182.588,238.620 181.836 C 239.426 180.470,239.501 180.036,238.772 180.957 M235.143 187.403 C 234.321 189.050,234.316 189.063,234.519 189.063 C 234.771 189.063,235.978 186.629,235.810 186.461 C 235.737 186.388,235.437 186.812,235.143 187.403 M280.078 187.973 C 280.078 188.305,280.371 188.817,280.728 189.112 C 281.322 189.603,281.335 189.565,280.870 188.672 C 280.190 187.362,280.078 187.264,280.078 187.973 M281.275 190.039 C 281.275 190.254,281.533 190.771,281.848 191.188 C 282.164 191.605,282.422 191.770,282.422 191.556 C 282.422 191.341,282.164 190.824,281.848 190.407 C 281.533 189.990,281.275 189.824,281.275 190.039 M206.321 191.211 C 206.566 191.748,206.918 192.188,207.103 192.188 C 207.288 192.188,207.152 191.748,206.800 191.211 C 206.448 190.674,206.096 190.234,206.018 190.234 C 205.940 190.234,206.076 190.674,206.321 191.211 M134.390 191.211 C 134.391 191.426,134.752 192.041,135.191 192.578 C 135.722 193.227,135.854 193.292,135.586 192.773 C 134.928 191.499,134.387 190.793,134.390 191.211 M230.165 196.316 C 229.484 197.501,229.082 198.375,229.271 198.258 C 229.741 197.968,231.747 194.507,231.556 194.316 C 231.471 194.232,230.845 195.132,230.165 196.316 M285.669 198.406 C 286.133 199.253,286.572 199.886,286.644 199.814 C 286.834 199.625,285.622 197.358,285.189 197.091 C 284.989 196.967,285.205 197.559,285.669 198.406 M258.868 201.465 C 258.778 201.626,258.212 202.637,257.609 203.711 C 257.006 204.785,256.693 205.488,256.915 205.273 C 257.480 204.726,259.495 201.172,259.240 201.172 C 259.125 201.172,258.957 201.304,258.868 201.465 M255.302 207.873 C 254.964 208.550,254.688 209.204,254.688 209.327 C 254.688 209.665,255.696 208.100,255.978 207.324 C 256.383 206.206,255.963 206.547,255.302 207.873 M292.212 210.352 C 292.212 210.566,292.470 211.083,292.786 211.500 C 293.101 211.917,293.359 212.083,293.359 211.868 C 293.359 211.653,293.101 211.136,292.786 210.719 C 292.470 210.302,292.212 210.137,292.212 210.352 M220.726 213.135 C 220.266 213.914,219.954 214.615,220.032 214.693 C 220.110 214.771,220.568 214.134,221.049 213.277 C 222.143 211.330,221.863 211.208,220.726 213.135 M107.850 216.187 C 108.302 216.952,108.746 217.578,108.838 217.578 C 109.115 217.578,107.847 215.302,107.424 215.040 C 107.207 214.906,107.399 215.423,107.850 216.187 M178.787 218.159 C 179.145 218.908,179.506 219.452,179.591 219.367 C 179.770 219.189,178.584 216.797,178.317 216.797 C 178.218 216.797,178.430 217.410,178.787 218.159 M110.955 221.819 C 111.698 223.356,112.500 224.233,112.500 223.508 C 112.500 223.307,112.236 222.924,111.914 222.656 C 111.592 222.389,111.328 221.949,111.328 221.680 C 111.328 221.410,111.074 220.978,110.763 220.720 C 110.367 220.392,110.425 220.721,110.955 221.819 M150.781 221.206 C 150.781 221.763,151.714 223.438,152.025 223.438 C 152.210 223.438,152.059 222.954,151.690 222.363 C 150.812 220.961,150.781 220.921,150.781 221.206 M244.653 227.375 C 244.190 228.222,243.973 228.814,244.173 228.691 C 244.607 228.423,245.818 226.156,245.629 225.967 C 245.556 225.895,245.117 226.528,244.653 227.375 M96.680 227.344 C 96.346 227.988,96.162 228.516,96.269 228.516 C 96.376 228.516,96.737 227.988,97.070 227.344 C 97.404 226.699,97.588 226.172,97.481 226.172 C 97.374 226.172,97.013 226.699,96.680 227.344 M301.564 227.461 C 301.561 228.001,302.783 230.160,302.980 229.963 C 303.083 229.860,302.807 229.184,302.366 228.462 C 301.926 227.740,301.565 227.289,301.564 227.461 M155.103 229.199 C 155.562 230.112,155.992 230.859,156.058 230.859 C 156.371 230.859,155.733 229.386,155.043 228.516 C 154.328 227.615,154.333 227.669,155.103 229.199 M270.508 234.766 C 270.175 235.410,269.990 235.938,270.097 235.938 C 270.205 235.938,270.565 235.410,270.898 234.766 C 271.232 234.121,271.417 233.594,271.309 233.594 C 271.202 233.594,270.841 234.121,270.508 234.766 M159.961 238.281 C 160.294 238.926,160.655 239.453,160.762 239.453 C 160.870 239.453,160.685 238.926,160.352 238.281 C 160.018 237.637,159.658 237.109,159.550 237.109 C 159.443 237.109,159.628 237.637,159.961 238.281 M307.813 239.453 C 308.251 240.313,308.698 241.016,308.805 241.016 C 308.912 241.016,308.642 240.313,308.203 239.453 C 307.765 238.594,307.318 237.891,307.211 237.891 C 307.103 237.891,307.374 238.594,307.813 239.453 M267.084 241.116 L 266.395 242.383 267.182 241.461 C 267.851 240.676,268.209 239.838,267.871 239.846 C 267.817 239.848,267.463 240.419,267.084 241.116 M192.069 242.378 C 192.426 243.127,192.787 243.671,192.872 243.586 C 193.051 243.407,191.865 241.016,191.598 241.016 C 191.499 241.016,191.711 241.629,192.069 242.378 M88.086 242.969 C 87.753 243.613,87.568 244.141,87.675 244.141 C 87.783 244.141,88.143 243.613,88.477 242.969 C 88.810 242.324,88.995 241.797,88.887 241.797 C 88.780 241.797,88.419 242.324,88.086 242.969 M235.756 243.589 C 235.392 244.144,235.161 244.666,235.243 244.748 C 235.325 244.831,235.701 244.376,236.078 243.738 C 236.920 242.313,236.668 242.196,235.756 243.589 M163.281 243.900 C 163.281 244.319,164.444 246.484,164.669 246.484 C 164.776 246.484,164.573 245.913,164.218 245.215 C 163.493 243.789,163.281 243.492,163.281 243.900 M232.445 249.463 C 231.985 250.242,231.673 250.943,231.751 251.021 C 231.829 251.099,232.286 250.462,232.768 249.605 C 233.862 247.659,233.582 247.536,232.445 249.463 M261.480 251.379 C 261.123 251.923,260.903 252.439,260.990 252.526 C 261.076 252.613,261.444 252.168,261.806 251.537 C 262.612 250.133,262.372 250.017,261.480 251.379 M314.258 251.563 C 314.591 252.207,314.952 252.734,315.059 252.734 C 315.167 252.734,314.982 252.207,314.648 251.563 C 314.315 250.918,313.955 250.391,313.847 250.391 C 313.740 250.391,313.925 250.918,314.258 251.563 M114.335 253.100 C 113.970 253.717,113.673 254.371,113.673 254.552 C 113.674 254.734,114.035 254.292,114.476 253.569 C 114.916 252.847,115.214 252.193,115.137 252.116 C 115.061 252.040,114.700 252.482,114.335 253.100 M285.201 253.902 C 285.682 254.759,286.140 255.396,286.218 255.318 C 286.386 255.150,284.771 252.344,284.507 252.344 C 284.407 252.344,284.719 253.045,285.201 253.902 M258.450 256.738 L 257.747 258.008 258.552 257.031 C 259.267 256.165,259.584 255.469,259.264 255.469 C 259.203 255.469,258.837 256.040,258.450 256.738 M317.193 256.836 C 317.193 257.051,317.542 257.754,317.969 258.398 C 318.396 259.043,318.745 259.395,318.745 259.180 C 318.745 258.965,318.396 258.262,317.969 257.617 C 317.542 256.973,317.193 256.621,317.193 256.836 M79.360 258.806 C 78.706 260.242,78.831 260.549,79.538 259.243 C 79.869 258.633,80.066 258.061,79.977 257.972 C 79.887 257.882,79.610 258.258,79.360 258.806 M192.459 263.872 C 192.102 264.621,191.890 265.234,191.988 265.234 C 192.256 265.234,193.442 262.843,193.263 262.664 C 193.178 262.579,192.816 263.123,192.459 263.872 M224.023 264.844 C 223.690 265.488,223.505 266.016,223.613 266.016 C 223.720 266.016,224.081 265.488,224.414 264.844 C 224.747 264.199,224.932 263.672,224.825 263.672 C 224.717 263.672,224.357 264.199,224.023 264.844 M283.190 266.622 C 282.719 267.385,282.400 268.077,282.481 268.158 C 282.563 268.240,283.028 267.616,283.514 266.771 C 284.616 264.856,284.356 264.737,283.190 266.622 M251.444 269.341 C 251.086 270.090,250.874 270.703,250.973 270.703 C 251.240 270.703,252.426 268.311,252.247 268.133 C 252.162 268.048,251.801 268.592,251.444 269.341 M281.478 269.392 C 281.106 270.362,281.516 270.494,282.013 269.565 C 282.253 269.116,282.286 268.750,282.087 268.750 C 281.887 268.750,281.613 269.039,281.478 269.392 M104.389 271.015 C 103.886 272.061,103.772 272.515,104.126 272.070 C 105.036 270.926,105.927 269.138,105.576 269.160 C 105.410 269.170,104.876 270.005,104.389 271.015 M158.477 273.340 C 158.388 273.501,157.821 274.512,157.218 275.586 C 156.615 276.660,156.303 277.363,156.524 277.148 C 157.090 276.601,159.104 273.047,158.849 273.047 C 158.734 273.047,158.567 273.179,158.477 273.340 M101.367 276.563 C 101.034 277.207,100.849 277.734,100.956 277.734 C 101.064 277.734,101.425 277.207,101.758 276.563 C 102.091 275.918,102.276 275.391,102.169 275.391 C 102.061 275.391,101.700 275.918,101.367 276.563 M68.032 279.509 C 67.378 280.945,67.503 281.252,68.210 279.946 C 68.541 279.336,68.738 278.764,68.649 278.675 C 68.559 278.585,68.282 278.961,68.032 279.509 M275.977 279.688 C 275.643 280.332,275.458 280.859,275.566 280.859 C 275.673 280.859,276.034 280.332,276.367 279.688 C 276.700 279.043,276.885 278.516,276.778 278.516 C 276.670 278.516,276.310 279.043,275.977 279.688 M329.492 279.688 C 329.825 280.332,330.186 280.859,330.294 280.859 C 330.401 280.859,330.216 280.332,329.883 279.688 C 329.550 279.043,329.189 278.516,329.081 278.516 C 328.974 278.516,329.159 279.043,329.492 279.688 M244.576 281.645 C 244.094 282.502,243.782 283.203,243.882 283.203 C 244.146 283.203,245.761 280.396,245.593 280.229 C 245.515 280.151,245.057 280.788,244.576 281.645 M97.852 282.813 C 97.518 283.457,97.333 283.984,97.441 283.984 C 97.548 283.984,97.909 283.457,98.242 282.813 C 98.575 282.168,98.760 281.641,98.653 281.641 C 98.545 281.641,98.185 282.168,97.852 282.813 M65.820 283.594 C 65.487 284.238,65.302 284.766,65.410 284.766 C 65.517 284.766,65.878 284.238,66.211 283.594 C 66.544 282.949,66.729 282.422,66.622 282.422 C 66.514 282.422,66.154 282.949,65.820 283.594 M331.250 282.956 C 331.250 283.448,333.179 287.048,333.573 287.292 C 333.785 287.423,333.424 286.515,332.771 285.273 C 331.541 282.934,331.250 282.491,331.250 282.956 M272.461 285.938 C 272.128 286.582,271.943 287.109,272.050 287.109 C 272.158 287.109,272.518 286.582,272.852 285.938 C 273.185 285.293,273.370 284.766,273.262 284.766 C 273.155 284.766,272.794 285.293,272.461 285.938 M302.031 286.016 C 301.773 286.273,301.563 286.659,301.563 286.872 C 301.563 287.084,301.800 286.935,302.089 286.538 C 302.421 286.085,302.805 285.935,303.126 286.133 C 303.463 286.342,303.542 286.296,303.358 285.998 C 303.002 285.422,302.620 285.427,302.031 286.016 M95.117 287.891 C 94.784 288.535,94.599 289.063,94.706 289.063 C 94.814 289.063,95.175 288.535,95.508 287.891 C 95.841 287.246,96.026 286.719,95.919 286.719 C 95.811 286.719,95.450 287.246,95.117 287.891 M92.787 292.026 C 92.423 292.582,92.192 293.104,92.274 293.186 C 92.357 293.268,92.732 292.813,93.109 292.175 C 93.951 290.750,93.700 290.634,92.787 292.026 M148.198 292.004 C 147.842 292.548,147.627 293.070,147.722 293.164 C 147.816 293.258,148.201 292.813,148.578 292.175 C 149.412 290.763,149.103 290.624,148.198 292.004 M268.120 293.567 C 267.764 294.111,267.543 294.627,267.630 294.714 C 267.717 294.800,268.084 294.355,268.446 293.725 C 269.252 292.320,269.013 292.204,268.120 293.567 M306.641 292.751 C 306.641 293.040,308.268 295.703,308.445 295.703 C 308.536 295.703,308.251 295.000,307.813 294.141 C 307.113 292.769,306.641 292.209,306.641 292.751 M173.672 298.045 C 173.086 299.120,172.691 300.000,172.794 300.000 C 173.055 300.000,175.042 296.396,174.874 296.228 C 174.798 296.152,174.257 296.970,173.672 298.045 M144.803 298.247 C 144.446 298.996,144.234 299.609,144.332 299.609 C 144.600 299.609,145.785 297.218,145.607 297.039 C 145.522 296.954,145.160 297.498,144.803 298.247 M295.194 298.247 C 294.836 298.996,294.624 299.609,294.723 299.609 C 294.990 299.609,296.176 297.218,295.997 297.039 C 295.912 296.954,295.551 297.498,295.194 298.247 M57.598 298.474 C 57.255 299.138,57.043 299.751,57.128 299.836 C 57.213 299.921,57.574 299.377,57.931 298.628 C 58.735 296.943,58.456 296.814,57.598 298.474 M263.390 302.441 C 262.626 303.429,262.366 304.035,262.828 303.750 C 263.291 303.464,264.216 301.953,263.929 301.953 C 263.840 301.953,263.598 302.173,263.390 302.441 M292.460 303.100 C 291.508 304.712,291.653 305.128,292.633 303.597 C 293.086 302.890,293.382 302.236,293.290 302.144 C 293.198 302.052,292.825 302.482,292.460 303.100 M86.818 302.832 C 86.266 303.530,85.488 305.078,85.690 305.078 C 85.784 305.078,86.223 304.463,86.667 303.711 C 87.473 302.345,87.548 301.911,86.818 302.832 M170.281 304.200 C 169.977 304.790,169.574 305.385,169.387 305.521 C 169.199 305.658,169.115 305.978,169.200 306.234 C 169.285 306.489,169.764 305.970,170.264 305.081 C 170.764 304.192,171.097 303.388,171.004 303.295 C 170.911 303.202,170.586 303.609,170.281 304.200 M312.554 303.711 C 313.166 305.193,314.260 307.031,314.530 307.031 C 314.708 307.031,314.388 306.284,313.820 305.371 C 312.753 303.659,312.272 303.028,312.554 303.711 M201.824 305.371 C 200.713 307.226,200.059 308.603,200.387 308.401 C 200.828 308.128,202.474 305.078,202.179 305.078 C 202.080 305.078,201.920 305.210,201.824 305.371 M230.770 306.738 C 229.915 308.056,229.149 309.625,229.577 309.180 C 230.125 308.610,231.736 305.859,231.522 305.859 C 231.422 305.859,231.083 306.255,230.770 306.738 M52.225 308.403 C 51.867 309.153,51.656 309.766,51.754 309.766 C 52.021 309.766,53.207 307.374,53.029 307.195 C 52.944 307.110,52.582 307.654,52.225 308.403 M168.065 308.301 C 167.506 309.002,166.244 311.600,166.690 311.133 C 167.235 310.562,168.845 307.813,168.634 307.813 C 168.536 307.813,168.280 308.032,168.065 308.301 M198.223 311.755 C 197.880 312.420,197.668 313.033,197.753 313.117 C 197.838 313.202,198.199 312.658,198.556 311.909 C 199.360 310.225,199.081 310.096,198.223 311.755 M256.912 313.872 C 256.555 314.621,256.343 315.234,256.442 315.234 C 256.709 315.234,257.895 312.843,257.716 312.664 C 257.631 312.579,257.270 313.123,256.912 313.872 M78.763 317.285 L 78.060 318.555 78.865 317.578 C 79.579 316.712,79.896 316.016,79.576 316.016 C 79.515 316.016,79.149 316.587,78.763 317.285 M223.319 320.122 C 222.961 320.871,222.749 321.484,222.848 321.484 C 223.115 321.484,224.301 319.093,224.122 318.914 C 224.037 318.829,223.676 319.373,223.319 320.122 M351.444 320.503 C 351.801 321.252,352.162 321.796,352.247 321.711 C 352.426 321.532,351.240 319.141,350.973 319.141 C 350.874 319.141,351.086 319.754,351.444 320.503 M91.895 320.215 C 99.360 320.274,111.577 320.274,119.043 320.215 C 126.509 320.155,120.400 320.107,105.469 320.107 C 90.537 320.107,84.429 320.155,91.895 320.215 M321.875 321.195 C 321.875 321.538,321.567 321.898,321.191 321.996 C 320.551 322.164,320.552 322.178,321.204 322.220 C 321.910 322.266,322.564 321.262,322.119 320.816 C 321.985 320.683,321.875 320.853,321.875 321.195 M44.587 322.321 C 44.312 322.762,44.172 323.209,44.277 323.314 C 44.382 323.419,44.672 323.123,44.922 322.656 C 45.512 321.553,45.238 321.279,44.587 322.321 M307.525 322.155 C 308.119 322.245,308.998 322.243,309.478 322.150 C 309.958 322.057,309.473 321.984,308.398 321.987 C 307.324 321.990,306.931 322.066,307.525 322.155 M313.393 322.164 C 314.636 322.242,316.570 322.241,317.690 322.162 C 318.810 322.084,317.793 322.020,315.430 322.021 C 313.066 322.022,312.150 322.086,313.393 322.164 M191.263 324.707 L 190.560 325.977 191.365 325.000 C 192.079 324.134,192.396 323.438,192.076 323.438 C 192.015 323.438,191.649 324.009,191.263 324.707 M250.209 326.010 C 249.845 326.566,249.614 327.088,249.696 327.170 C 249.779 327.252,250.154 326.798,250.531 326.160 C 251.373 324.735,251.121 324.618,250.209 326.010 M279.569 326.372 C 279.211 327.121,278.999 327.734,279.098 327.734 C 279.365 327.734,280.551 325.343,280.372 325.164 C 280.287 325.079,279.926 325.623,279.569 326.372 M355.103 327.148 C 355.103 327.363,355.361 327.880,355.676 328.297 C 355.992 328.714,356.250 328.880,356.250 328.665 C 356.250 328.450,355.992 327.933,355.676 327.516 C 355.361 327.099,355.103 326.934,355.103 327.148 M248.263 329.516 C 247.902 330.066,247.667 330.696,247.740 330.914 C 247.813 331.133,248.172 330.683,248.539 329.914 C 249.320 328.278,249.193 328.096,248.263 329.516 M356.836 330.469 C 357.169 331.113,357.530 331.641,357.637 331.641 C 357.745 331.641,357.560 331.113,357.227 330.469 C 356.893 329.824,356.533 329.297,356.425 329.297 C 356.318 329.297,356.503 329.824,356.836 330.469 M277.254 330.566 C 276.400 331.884,275.633 333.453,276.062 333.008 C 276.609 332.439,278.221 329.688,278.006 329.688 C 277.906 329.688,277.568 330.083,277.254 330.566 M38.319 333.813 C 37.868 334.577,37.676 335.094,37.893 334.960 C 38.316 334.698,39.584 332.422,39.306 332.422 C 39.215 332.422,38.770 333.048,38.319 333.813 M185.461 335.160 C 184.908 336.232,184.580 337.109,184.731 337.109 C 185.023 337.109,186.776 333.521,186.580 333.325 C 186.517 333.262,186.013 334.087,185.461 335.160 M273.066 337.853 C 272.617 338.733,272.324 339.453,272.414 339.453 C 272.708 339.453,274.256 336.626,274.067 336.436 C 273.965 336.335,273.515 336.973,273.066 337.853 M361.209 338.472 C 361.566 339.221,361.928 339.765,362.013 339.680 C 362.192 339.501,361.006 337.109,360.738 337.109 C 360.640 337.109,360.852 337.722,361.209 338.472 M294.202 341.468 C 293.487 342.758,292.982 343.893,293.078 343.990 C 293.175 344.087,293.475 343.633,293.745 342.981 C 294.015 342.330,294.351 341.797,294.493 341.797 C 294.749 341.797,295.775 339.395,295.596 339.216 C 295.544 339.164,294.917 340.178,294.202 341.468 M33.398 342.969 C 33.065 343.613,32.880 344.141,32.988 344.141 C 33.095 344.141,33.456 343.613,33.789 342.969 C 34.122 342.324,34.307 341.797,34.200 341.797 C 34.092 341.797,33.732 342.324,33.398 342.969 M179.492 346.094 C 179.159 346.738,178.974 347.266,179.081 347.266 C 179.189 347.266,179.550 346.738,179.883 346.094 C 180.216 345.449,180.401 344.922,180.294 344.922 C 180.186 344.922,179.825 345.449,179.492 346.094 M184.840 347.948 C 187.567 348.015,192.137 348.015,194.996 347.948 C 197.856 347.882,195.625 347.827,190.039 347.826 C 184.453 347.826,182.114 347.881,184.840 347.948 M202.237 347.938 C 202.931 348.024,204.161 348.026,204.972 347.941 C 205.782 347.857,205.215 347.786,203.711 347.784 C 202.207 347.783,201.544 347.852,202.237 347.938 M246.948 347.948 C 250.533 348.013,256.509 348.013,260.229 347.949 C 263.949 347.884,261.016 347.832,253.711 347.832 C 246.406 347.831,243.363 347.884,246.948 347.948 M310.869 347.949 C 321.037 348.007,337.561 348.007,347.588 347.949 C 357.616 347.891,349.297 347.844,329.102 347.844 C 308.906 347.844,300.702 347.891,310.869 347.949 M97.559 348.323 C 98.042 348.416,98.833 348.416,99.316 348.323 C 99.800 348.229,99.404 348.153,98.438 348.153 C 97.471 348.153,97.075 348.229,97.559 348.323 " stroke="none" fill="#cf7c2e" fill-rule="evenodd"></path></g></svg>